<svg width="90" height="91" viewBox="0 0 90 91" fill="none" xmlns="http://www.w3.org/2000/svg">
<path d="M31.5 17C35.6421 17 39 13.6421 39 9.5C39 5.35786 35.6421 2 31.5 2C27.3579 2 24 5.35786 24 9.5C24 13.6421 27.3579 17 31.5 17Z" fill="white"/>
<path d="M76.9957 43.6211C74.8269 40.1336 70.9207 38 66.7057 38H23.4639C19.1575 38 15.1814 40.2262 13.0449 43.8335L7.07129 53.9187L7.49991 60.5H82.4999V52.4722L76.9957 43.6211Z" fill="white"/>
<path d="M13.2188 66.4981H34.5L43.5 63.4347L78 66.5H81.1553C85.2116 66.5 88.5 63.1422 88.5 59C88.5 54.7355 85.0223 51.329 80.85 51.5065L13.2188 57.308V66.4981Z" fill="white"/>
<path d="M57.7353 27.6974L56.5467 28.2562L52.0762 18.7477L53.2647 18.1887C54.2104 17.7441 55.294 17.6934 56.2771 18.0477C57.2602 18.402 58.0622 19.1323 58.5069 20.078L59.6249 22.4551C59.8451 22.9234 59.9708 23.4305 59.995 23.9474C60.0192 24.4642 59.9413 24.9808 59.7658 25.4676C59.5904 25.9544 59.3207 26.4019 58.9723 26.7845C58.6239 27.1671 58.2036 27.4773 57.7353 27.6974Z" fill="white"/>
<path d="M29.2098 41.1093L30.3984 40.5504L25.9276 31.0419L24.739 31.6006C23.7933 32.0453 23.063 32.8474 22.7087 33.8305C22.3544 34.8136 22.4052 35.8972 22.8498 36.8429L23.9675 39.2201C24.4121 40.1658 25.2142 40.8961 26.1974 41.2504C27.1805 41.6047 28.2641 41.5539 29.2098 41.1093Z" fill="white"/>
<path d="M57.3907 40.625C58.2986 35.6566 57.7356 30.5312 55.771 25.8783L52.1305 17.2569C51.3372 15.378 50.1725 13.6787 48.7062 12.2611C47.24 10.8434 45.5025 9.73651 43.598 9.00685C41.6935 8.27718 39.6612 7.93976 37.6231 8.01484C35.5849 8.08992 33.583 8.57594 31.7373 9.44375C29.8916 10.3115 28.2402 11.5432 26.8822 13.065C25.5243 14.5867 24.4877 16.367 23.8347 18.2992C23.1817 20.2314 22.9258 22.2755 23.0822 24.3091C23.2387 26.3426 23.8043 28.3235 24.7452 30.1331L29.0626 38.4363C31.3926 42.9175 34.9806 46.6206 39.386 49.0908C41.4233 50.2333 43.7092 50.86 46.0443 50.9163C47.675 50.9557 49.2924 50.6149 50.7686 49.9209C52.2447 49.2268 53.539 48.1986 54.5489 46.9177C55.9952 45.0833 56.9708 42.9229 57.3907 40.625Z" fill="white"/>
<path d="M57.39 40.625C56.9714 42.923 55.9961 45.0835 54.5494 46.9175C53.5657 48.1652 52.3119 49.1736 50.8823 49.867C49.4527 50.5603 47.8845 50.9206 46.2957 50.9206C46.2113 50.9206 46.1288 50.9188 46.0444 50.9169C43.7094 50.8597 41.4237 50.2328 39.3863 49.0906C34.9806 46.621 31.3924 42.9181 29.0626 38.4369L24.8044 30.2487V30.2469L24.7444 30.1325C23.8037 28.3229 23.2382 26.342 23.0819 24.3085C22.9256 22.275 23.1816 20.2309 23.8347 18.2987C24.4878 16.3666 25.5244 14.5864 26.8824 13.0647C28.2404 11.5431 29.8918 10.3115 31.7375 9.44372C33.5832 8.57597 35.5851 8.09 37.6232 8.01496C39.6613 7.93991 41.6936 8.27734 43.5981 9.007C45.5026 9.73667 47.2401 10.8435 48.7063 12.2612C50.1725 13.6788 51.3373 15.378 52.1307 17.2569L52.1982 17.4162L55.7719 25.8781C57.736 30.5312 58.2984 35.6567 57.39 40.625Z" fill="white"/>
<path d="M52.1981 17.4162C50.4131 15.3312 48.6468 13.8781 46.8318 12.98C45.9316 12.5299 44.973 12.2074 43.9837 12.0219C43.0314 11.8502 42.0609 11.8017 41.0962 11.8775C39.9892 11.969 38.8953 12.1803 37.8337 12.5075C36.9614 12.7735 36.1051 13.089 35.2687 13.4525C34.8731 13.6212 34.47 13.805 34.0631 14C33.5437 14.25 33.0462 14.5062 32.5706 14.7687C31.5937 15.3035 30.6591 15.9122 29.775 16.5894C28.9586 17.2147 28.205 17.918 27.525 18.6894C27.0001 19.285 26.533 19.9291 26.13 20.6131C25.6165 21.4796 25.2181 22.4093 24.945 23.3787C24.3618 25.4375 24.3168 27.7194 24.8043 30.2469L24.7443 30.1325C23.6205 27.9806 23.0332 25.589 23.0325 23.1612C23.0325 23.015 23.0343 22.8687 23.04 22.7244C23.1018 20.6012 23.6076 18.5145 24.525 16.5987C24.9588 15.6924 25.4813 14.8313 26.085 14.0281C27.2429 12.4905 28.6853 11.1895 30.3337 10.1956C30.7886 9.92098 31.2573 9.67002 31.7381 9.44373C32.1693 9.24123 32.6043 9.06123 33.0431 8.90373C35.8957 7.87024 38.9936 7.7206 41.9325 8.47436C42.9573 8.73822 43.952 9.1077 44.9006 9.57686C48.1552 11.1849 50.7218 13.9112 52.1306 17.2569L52.1981 17.4162Z" fill="white"/>
<path d="M8.47294 66.4981H13.5L42 56L63 53L57 48.5H40.5L14.9387 51.0558C11.9887 51.3509 9.08058 51.9728 6.26794 52.9102C4.87958 53.373 3.67202 54.2608 2.8163 55.448C1.96057 56.6352 1.50006 58.0615 1.5 59.525C1.49998 60.4407 1.68032 61.3475 2.03073 62.1935C2.38114 63.0395 2.89476 63.8082 3.54226 64.4557C4.18976 65.1032 4.95846 65.6169 5.80447 65.9673C6.65047 66.3178 7.55722 66.4981 8.47294 66.4981Z" fill="white"/>
<path d="M84 66.5H6C3.51472 66.5 1.5 68.5147 1.5 71V77C1.5 79.4853 3.51472 81.5 6 81.5H84C86.4853 81.5 88.5 79.4853 88.5 77V71C88.5 68.5147 86.4853 66.5 84 66.5Z" fill="#EBEBE9"/>
<path d="M17.9541 81.1782L16.5698 81.2756L17.041 86.1296C17.2068 87.8358 18.787 89.1168 20.5709 88.9915C22.3548 88.8663 23.6665 87.3817 23.5009 85.6756C23.2407 82.9949 20.7573 80.9814 17.9541 81.1782Z" fill="white"/>
<path d="M17.1199 82.4907L16.5699 81.2742L11.8884 83.0947C10.2429 83.7346 9.48373 85.5241 10.1925 87.0918C10.9012 88.6595 12.8096 89.4117 14.4549 88.7718C17.0405 87.7664 18.2336 84.9543 17.1199 82.4907Z" fill="white"/>
<path d="M13.146 77.5269C12.5735 76.92 11.7936 76.5507 10.9613 76.4925C10.129 76.4342 9.30532 76.6912 8.65385 77.2124L8.60585 77.2516C8.2916 77.4978 8.03188 77.8065 7.84314 78.1582C7.6544 78.5099 7.54075 78.897 7.5094 79.295C7.47804 79.6929 7.52966 80.093 7.66098 80.47C7.7923 80.8469 8.00046 81.1925 8.27229 81.4848L8.43166 81.659C10.236 83.6326 13.3965 83.8539 15.4903 82.1533L16.5725 81.2744L13.146 77.5269Z" fill="white"/>
<path d="M18.0387 72.9607C16.498 72.0684 14.5079 72.5116 13.5934 73.9509C12.1563 76.2121 12.9537 79.1821 15.3747 80.584L16.57 81.2765L19.1721 77.1819C20.0866 75.7437 19.579 73.8528 18.0387 72.9607Z" fill="white"/>
<path d="M22.9688 76.4675C20.2223 75.833 17.4938 77.4132 16.875 79.9972L16.5696 81.2733H16.5739L17.9539 81.1773C19.3564 81.0799 20.7407 81.5396 21.8063 82.4566C23.4611 82.7065 25.0459 81.7364 25.4198 80.1753C25.8137 78.5317 24.7161 76.8714 22.9688 76.4675Z" fill="white"/>
<path d="M84 66.5H65.5875C53.292 74.3669 37.4895 78.9365 25.2456 81.5H84C85.1935 81.5 86.3381 81.0259 87.182 80.182C88.0259 79.3381 88.5 78.1935 88.5 77V71C88.5 69.8065 88.0259 68.6619 87.182 67.818C86.3381 66.9741 85.1935 66.5 84 66.5Z" fill="#E0E0DE"/>
<path d="M90 59C90.0112 56.9363 89.3064 54.9325 88.0058 53.3302C86.7052 51.7279 84.8892 50.6261 82.8673 50.2126L78.2681 42.8324C75.8379 38.9259 71.4067 36.5 66.7046 36.5H59.2704C59.3267 33.985 59.03 31.4746 58.3892 29.042C59.6883 28.4251 60.6902 27.3189 61.176 25.9653C61.6618 24.6117 61.5918 23.1209 60.9814 21.8187L59.8594 19.4399C59.3084 18.2732 58.3598 17.3409 57.1836 16.8104C56.0074 16.2798 54.6807 16.1857 53.4414 16.5449C52.1164 13.4555 49.881 10.8434 47.0332 9.05712C45.1153 7.83529 42.9608 7.03257 40.7109 6.70156C40.491 6.66406 40.2347 6.65937 40.0018 6.63349C39.6 5.4158 38.942 4.29832 38.0721 3.35627C37.2021 2.41422 36.1405 1.66947 34.9586 1.17215C33.7767 0.67482 32.5019 0.436464 31.2202 0.473121C29.9384 0.509779 28.6794 0.820599 27.5279 1.38466C26.3763 1.94872 25.359 2.75293 24.5443 3.74316C23.7296 4.73339 23.1366 5.88665 22.805 7.12531C22.4734 8.36398 22.4111 9.6593 22.6221 10.9241C22.8332 12.1889 23.3127 13.3938 24.0285 14.4577C22.797 16.4364 22 18.654 21.69 20.9639C21.5889 21.693 21.5387 22.4282 21.54 23.1642C21.5348 25.7799 22.1569 28.3586 23.3541 30.6841C22.4108 31.3348 21.6966 32.2662 21.3128 33.3459C20.9291 34.4257 20.8954 35.5989 21.2166 36.6989C17.2753 37.3437 13.7676 39.6537 11.7615 43.067L6.96356 51.1338C6.57337 51.2514 6.18 51.3588 5.79338 51.4884C4.37791 51.9583 3.11187 52.7941 2.1236 53.9112C1.13533 55.0282 0.459978 56.3866 0.166012 57.8488C-0.127954 59.311 -0.0300829 60.8249 0.449704 62.2371C0.929491 63.6492 1.77413 64.9094 2.898 65.8899C2.01614 66.4204 1.28607 67.1694 0.778399 68.0646C0.270725 68.9598 0.00261671 69.9709 0 71V77C0.000222272 77.8449 0.17854 78.6802 0.523323 79.4516C0.868107 80.2229 1.37161 80.9129 2.001 81.4766L3.999 79.2384C3.68453 78.9564 3.43303 78.6114 3.2609 78.2257C3.08877 77.84 2.99987 77.4223 3 77V71C3.00104 70.2047 3.31745 69.4422 3.87983 68.8798C4.44221 68.3174 5.20467 68.001 6 68H84C84.7953 68.001 85.5578 68.3174 86.1202 68.8798C86.6826 69.4422 86.999 70.2047 87 71V77C86.999 77.7953 86.6826 78.5578 86.1202 79.1202C85.5578 79.6825 84.7953 79.9989 84 80H30V83H84C85.5908 82.9984 87.116 82.3658 88.2409 81.2409C89.3658 80.116 89.9984 78.5908 90 77V71C89.9964 69.9387 89.7104 68.8974 89.1714 67.9831C88.6323 67.0689 87.8596 66.3145 86.9327 65.7976C87.8982 64.948 88.6712 63.9022 89.2002 62.7299C89.7291 61.5577 90.0018 60.2861 90 59ZM75.7222 44.4189L79.2988 50.1592L63.5336 51.5259L57.9 47.3C57.6405 47.1049 57.3246 46.9996 57 47H56.3203C57.5836 45.1677 58.4498 43.0914 58.8634 40.9046C58.9494 40.4519 59.0216 39.9809 59.0816 39.4998H66.7046C70.3785 39.5 73.8339 41.3838 75.7222 44.4189ZM57.1436 20.7147L58.2686 23.1011C58.5105 23.6202 58.5614 24.208 58.4121 24.761C58.2628 25.3139 57.9231 25.7963 57.4528 26.1232C57.3471 25.8506 57.2653 25.5607 57.1509 25.2969L54.6354 19.3437C55.1448 19.277 55.6623 19.3738 56.1131 19.6202C56.5639 19.8667 56.9248 20.2499 57.1436 20.7147ZM50.7452 17.8422L54.3926 26.4761C54.7017 27.1913 54.9692 27.9237 55.1938 28.6698C56.1324 31.6488 56.4822 34.7821 56.2236 37.8948C56.1695 38.72 56.0663 39.5413 55.9146 40.3542C55.5342 42.409 54.6653 44.3421 53.3813 45.9907C53.0904 46.352 52.7718 46.6902 52.4284 47.0021L39.0981 47.1333C36.0751 45.2555 33.5058 42.7311 31.575 39.7417C31.1489 39.0986 30.7577 38.4331 30.4031 37.748L26.079 29.4438C25.0768 27.5338 24.5509 25.41 24.546 23.2531L25.6322 23.6446L26.6488 20.8233L24.8899 20.1892C25.0957 19.263 25.3988 18.3611 25.794 17.4986L29.169 19.7486L30.8333 17.2526L27.3234 14.9129C28.3441 13.5586 29.6107 12.4088 31.0571 11.5235L33.1729 16.0235L35.8886 14.7461L33.7719 10.244C35.3147 9.71404 36.9418 9.47252 38.5719 9.53149L37.5456 13.6366L40.4548 14.3634L41.5631 9.92956C42.5428 10.1792 43.4906 10.5405 44.3878 11.0064L43.7477 12.7842L46.569 13.8009L46.9577 12.7214C48.6092 14.1031 49.9076 15.8585 50.7452 17.8422ZM24.7511 33.3875L27.7442 39.1361C27.8886 39.4092 28.0254 39.6577 28.1576 39.8947C27.6062 40.0457 27.019 39.996 26.5008 39.7543C25.9827 39.5126 25.5672 39.0947 25.3286 38.5751L24.2051 36.2126C23.9886 35.7438 23.9249 35.2189 24.0228 34.712C24.1208 34.2051 24.3756 33.7418 24.7511 33.3875ZM31.5 3.49999C32.5665 3.50235 33.613 3.78921 34.5316 4.33097C35.4502 4.87273 36.2077 5.64977 36.7258 6.58193C32.6175 6.92529 28.7866 8.79442 25.9875 11.8212C25.5945 10.9114 25.4347 9.91796 25.5225 8.9308C25.6103 7.94364 25.9429 6.99396 26.4902 6.16775C27.0376 5.34155 27.7823 4.6649 28.6571 4.19908C29.5318 3.73326 30.509 3.49298 31.5 3.49999ZM14.3438 44.5947C16.0284 41.726 19.0901 39.8671 22.4758 39.563L22.6129 39.8516C22.9135 40.4997 23.3394 41.082 23.8662 41.5647C24.393 42.0474 25.0102 42.421 25.6821 42.664C26.354 42.9069 27.0674 43.0144 27.7811 42.9802C28.4948 42.946 29.1946 42.7708 29.8402 42.4647L29.8498 42.4604C31.2132 44.3656 32.8173 46.0864 34.6221 47.5801L14.7891 49.5635C13.5367 49.6884 12.2914 49.8856 11.0537 50.1249L14.3438 44.5947ZM6.74269 54.3329C9.44992 53.4315 12.2488 52.8332 15.0879 52.5489L40.5 50H56.5005L59.2031 52.0272L41.7876 54.5131C41.683 54.5281 41.5804 54.5541 41.4814 54.5907L13.2319 64.9985H8.47275C7.17312 64.9985 5.91592 64.5359 4.92611 63.6937C3.9363 62.8515 3.2785 61.6846 3.0704 60.4017C2.86231 59.1188 3.11751 57.8038 3.79034 56.6919C4.46317 55.58 5.50971 54.7438 6.74269 54.3329ZM81.15 65H78.0658L43.6312 61.9458C43.4232 61.9252 43.2131 61.9508 43.0161 62.0208L34.2525 65H21.9062L42.3692 57.4604L61.7934 54.6875L80.85 53H81.1342C81.3452 52.9992 81.5561 53.0114 81.7656 53.0366C84.75 53.3647 87 55.9282 87 59C87 62.309 84.375 65 81.15 65Z" fill="#BA7894"/>
<path d="M30.9946 34.1036L32.8754 36.4415C34.5006 35.1372 36.4125 34.2379 38.4536 33.8178L37.8536 30.8793C35.344 31.3952 32.9931 32.5004 30.9946 34.1036Z" fill="#BA7894"/>
<path d="M45.8526 38.8687C44.786 39.3711 43.6269 39.6469 42.4483 39.6787L42.2021 39.6845L42.2725 42.6845L42.5171 42.6787C45.1207 42.6096 47.6246 41.6635 49.6234 39.9937L47.6987 37.6938C47.1365 38.1633 46.516 38.5582 45.8526 38.8687Z" fill="#BA7894"/>
<path d="M37.3183 29.8276L38.1678 26.9506C33.9287 25.7011 29.666 27.7124 28.0327 31.7379L30.813 32.8657C31.8707 30.2583 34.5425 29.0116 37.3183 29.8276Z" fill="#BA7894"/>
<path d="M41.1187 25.5635L43.8749 26.7448C45.013 24.089 47.6776 22.8292 50.3656 23.6729L51.268 20.8136C47.1269 19.502 42.8583 21.5015 41.1187 25.5635Z" fill="#BA7894"/>
<path d="M39.3076 29.1213L42.0236 27.8458L45.9304 36.1649L43.2144 37.4404L39.3076 29.1213Z" fill="#BA7894"/>
<path d="M46.3023 30.3301C47.928 29.0261 49.8401 28.1268 51.8813 27.7062L51.2778 24.7677C48.769 25.284 46.4188 26.3891 44.4209 27.9918L46.3023 30.3301Z" fill="#BA7894"/>
<path d="M26.323 77.1455C25.9876 76.6062 25.548 76.1393 25.03 75.7719C24.512 75.4045 23.9259 75.144 23.3061 75.0058C22.5701 74.8353 21.811 74.7876 21.0595 74.8646C21.0426 74.7678 21.0235 74.6713 20.9999 74.5747C20.8489 73.9645 20.5752 73.3916 20.1953 72.8908C19.8154 72.3901 19.3373 71.9721 18.7903 71.6624C16.5664 70.3745 13.6664 71.0398 12.3274 73.1461C11.9561 73.7291 11.6869 74.371 11.5313 75.0444C10.8592 74.931 10.1707 74.962 9.51145 75.1352C8.85223 75.3083 8.2374 75.6198 7.70779 76.0488L7.66054 76.0863C7.186 76.4647 6.79466 76.9369 6.511 77.4734C6.22735 78.0099 6.05748 78.5992 6.01204 79.2044C5.96748 79.8029 6.04691 80.404 6.24536 80.9703C6.44381 81.5367 6.75701 82.0559 7.16535 82.4956L7.32473 82.6704C7.77775 83.1645 8.30594 83.5841 8.88979 83.9135C8.59697 84.5013 8.43927 85.1472 8.42821 85.8039C8.41714 86.4605 8.553 87.1113 8.82585 87.7087C9.35612 88.8205 10.2863 89.6914 11.4306 90.1475C12.5748 90.6035 13.8491 90.6112 14.9987 90.1689C15.6789 89.9061 16.3103 89.5312 16.8666 89.0598C17.321 89.5162 17.8611 89.8783 18.4558 90.1255C19.0505 90.3726 19.6881 90.4999 20.3322 90.5C20.4462 90.5 20.5608 90.496 20.676 90.488C21.3053 90.449 21.9202 90.2832 22.4838 90.0008C23.0475 89.7183 23.5483 89.3249 23.9562 88.8442C24.3433 88.3903 24.6347 87.8629 24.813 87.2936C24.9913 86.7243 25.0528 86.1249 24.9938 85.5312C24.9255 84.8344 24.7399 84.1541 24.4448 83.5192C25.0483 83.2334 25.5801 82.8162 26.0013 82.2981C26.4225 81.78 26.7224 81.1741 26.8789 80.525C27.0155 79.953 27.0366 79.3595 26.9412 78.7793C26.8457 78.199 26.6356 77.6436 26.323 77.1455ZM22.6313 77.9291C22.8648 77.9792 23.0861 78.0754 23.282 78.212C23.478 78.3486 23.6448 78.5228 23.7726 78.7246C23.8758 78.8865 23.9457 79.0673 23.9782 79.2565C24.0107 79.4457 24.0051 79.6395 23.9618 79.8266C23.7994 80.5053 23.1347 80.9754 22.3733 80.9953C21.2723 80.1838 19.9526 79.7224 18.5858 79.6709C19.2794 78.3024 20.9488 77.5398 22.6313 77.9291ZM14.8594 74.7553C15.3387 74.0015 16.4503 73.7743 17.2868 74.2586C17.4829 74.3668 17.6548 74.5138 17.7922 74.6907C17.9295 74.8676 18.0294 75.0706 18.0857 75.2874C18.135 75.4889 18.1389 75.6989 18.0972 75.9022C16.97 76.6236 16.1058 77.6896 15.6334 78.9417C15.0571 78.4823 14.6477 77.8461 14.4683 77.1313C14.3684 76.7294 14.3516 76.3115 14.4189 75.9029C14.4861 75.4944 14.636 75.1039 14.8594 74.7553ZM9.00379 79.427C9.02061 79.2296 9.078 79.0377 9.17237 78.8635C9.26674 78.6893 9.39605 78.5364 9.55223 78.4145L9.59966 78.377C9.88951 78.1477 10.242 78.0116 10.6108 77.9866C10.9795 77.9616 11.3472 78.0488 11.6653 78.2369C12.0641 79.4991 12.8468 80.6053 13.9043 81.4014C13.1926 81.763 12.3831 81.8849 11.5964 81.749C10.8097 81.6131 10.0881 81.2267 9.53891 80.6472L9.37935 80.4727C9.24817 80.3336 9.14711 80.1689 9.08249 79.989C9.01787 79.8091 8.99107 79.6178 9.00379 79.427ZM13.9112 87.3738C13.0142 87.7224 11.9376 87.3103 11.5594 86.4738C11.4275 86.1885 11.3941 85.8674 11.4643 85.561C11.5345 85.2546 11.7044 84.9802 11.9474 84.7807C12.042 84.7846 12.1365 84.7876 12.2312 84.7876C13.5525 84.7923 14.8455 84.4058 15.9475 83.6769C16.1015 84.3011 16.0534 84.9581 15.81 85.5532C15.6353 85.9706 15.3765 86.3477 15.0499 86.6609C14.7232 86.9741 14.3356 87.2168 13.9112 87.3738ZM21.6653 86.9073C21.5151 87.081 21.3314 87.2226 21.1252 87.3237C20.9191 87.4247 20.6946 87.4831 20.4653 87.4953C20.0981 87.523 19.731 87.4407 19.4109 87.2588C19.0907 87.077 18.8321 86.8038 18.6679 86.4742C19.1148 85.2599 19.1576 83.9337 18.7898 82.6931C20.4702 82.8944 21.8483 84.1788 22.0075 85.8208C22.0265 86.0156 22.0061 86.2122 21.9473 86.399C21.8885 86.5857 21.7926 86.7586 21.6653 86.9073Z" fill="#BA7894"/>
</svg>
