<svg width="96" height="97" viewBox="0 0 96 97" fill="none" xmlns="http://www.w3.org/2000/svg">
<path d="M59.7383 71.9548V52.9592H36.2618V71.9548C36.2618 72.9741 35.5951 73.872 34.6197 74.1675C25.6073 76.8971 10.8623 79.5594 10.8623 91.9367V93.2691C10.8623 94.2769 11.6792 95.0938 12.6871 95.0938H83.313C84.3209 95.0938 85.1378 94.2769 85.1378 93.2691V91.9367C85.1378 79.5594 70.3928 76.8971 61.3804 74.1675C60.405 73.872 59.7383 72.9741 59.7383 71.9548Z" fill="#F9F9F9"/>
<path d="M61.3804 74.1676C60.4048 73.8721 59.7383 72.9741 59.7383 71.9549V52.9593H54.1133V74.0174C54.1133 75.0366 54.7798 75.9346 55.7554 76.2301C64.7676 78.9597 79.5128 79.9345 79.5128 92.3118V93.2691C79.5128 94.2768 78.6958 95.0937 77.688 95.0937H83.313C84.3208 95.0937 85.1378 94.2769 85.1378 93.2691V91.9368C85.1378 79.5595 70.3926 76.8972 61.3804 74.1676Z" fill="white"/>
<path d="M76.4076 35.0696V30.3138C76.4076 14.6248 63.6891 1.90627 48 1.90627C32.3108 1.90627 19.5923 14.6248 19.5923 30.3138V35.0696H76.4076Z" fill="white"/>
<path d="M48 1.90627C46.5225 1.90627 45.0713 2.01933 43.6545 2.23683C58.029 4.38746 70.7826 16.806 70.7826 31.8052V35.0696H76.4076V30.3138C76.4076 14.6248 63.6891 1.90627 48 1.90627Z" fill="white"/>
<path d="M44.3606 16.5418C33.9811 16.5418 25.5669 24.9561 25.5669 35.3355V45.3995C25.5669 56.6272 40.7529 64.7767 48.0001 64.7767C55.2474 64.7767 70.4336 56.6272 70.4336 45.3995V35.3355C70.4336 24.9561 62.0193 16.5418 51.6397 16.5418H44.3606Z" fill="#F9F9F9"/>
<path d="M51.6396 16.5418H46.0146C56.394 16.5418 64.8083 24.9561 64.8083 35.3355V45.3995C64.8083 55.3226 52.9474 62.84 45.1875 64.4533C46.2077 64.6654 47.1579 64.7767 48 64.7767C55.2472 64.7767 70.4333 56.6272 70.4333 45.3995V35.3355C70.4333 24.9561 62.019 16.5418 51.6396 16.5418Z" fill="white"/>
<path d="M35.2428 57.3056L27.8191 49.7241L26.0696 41.1536L27.5656 34.4151L18.5557 21.9773L15.7256 6.19033C15.6341 5.6807 15.1469 5.3417 14.6373 5.43301L2.92494 7.53283C2.39919 7.62714 2.0585 8.1407 2.17569 8.66158L9.87313 42.8498C10.7276 46.6451 12.9254 50.0034 16.0616 52.3058L33.2009 64.8885C33.9738 65.4561 35.0662 65.3186 35.6551 64.5619C37.3535 62.3792 37.1756 59.2794 35.2428 57.3056Z" fill="white"/>
<path d="M20.9968 35.5927L22.7121 45.1605C23.0374 46.9745 24.7714 48.1813 26.5855 47.8561C28.3993 47.5308 29.6063 45.7968 29.281 43.983L27.5657 34.415L20.9968 35.5927Z" fill="white"/>
<path d="M60.7572 57.3056L68.1809 49.7241L69.9305 41.1536L68.4344 34.4151L77.4444 21.9773L80.2745 6.19033C80.366 5.6807 80.8531 5.3417 81.3627 5.43301L93.0751 7.53283C93.6009 7.62714 93.9415 8.1407 93.8244 8.66158L86.1269 42.8498C85.2725 46.6451 83.0746 50.0034 79.9385 52.3058L62.7991 64.8885C62.0262 65.4561 60.9339 65.3186 60.3449 64.5619C58.6465 62.3792 58.8245 59.2794 60.7572 57.3056Z" fill="white"/>
<path d="M93.0751 7.53283L89.0122 6.80439C89.288 7.0202 89.4331 7.38245 89.3504 7.74901L81.6532 41.9372C80.7985 45.7326 78.6007 49.0911 75.4647 51.3932L59.5269 63.0939C59.719 63.6107 59.9905 64.1064 60.3449 64.5619C60.9339 65.3186 62.026 65.4561 62.7989 64.8885L79.9385 52.3058C83.0746 50.0034 85.2723 46.6451 86.1269 42.8498L93.8244 8.66158C93.9415 8.1407 93.6007 7.62714 93.0751 7.53283Z" fill="white"/>
<path d="M75.0033 35.5927L73.2881 45.1605C72.9628 46.9745 71.2288 48.1813 69.4147 47.8561C67.6008 47.5308 66.3939 45.7968 66.7192 43.983L68.4345 34.415L75.0033 35.5927Z" fill="white"/>
<path d="M76.1327 79.1713C81.1896 81.7288 85.1383 85.5332 85.1383 91.9363V93.2694C85.1383 94.2763 84.3208 95.0938 83.3139 95.0938H12.6864C11.6796 95.0938 10.8621 94.2763 10.8621 93.2694V91.9363C10.8621 79.5594 25.6071 76.8969 34.6202 74.1669C35.5952 73.8725 36.2627 72.9744 36.2627 71.9544V63.5844" stroke="#BA7894" stroke-width="3" stroke-miterlimit="10" stroke-linecap="round" stroke-linejoin="round"/>
<path d="M59.7375 63.5844V71.9544C59.7375 72.9744 60.405 73.8725 61.38 74.1669C63.9413 74.9432 66.9657 75.7138 69.9807 76.7019" stroke="#BA7894" stroke-width="3" stroke-miterlimit="10" stroke-linecap="round" stroke-linejoin="round"/>
<path d="M48 1.90628C61.6237 1.90628 73.0069 11.495 75.7669 24.2919" stroke="#BA7894" stroke-width="3" stroke-miterlimit="10" stroke-linecap="round" stroke-linejoin="round"/>
<path d="M26.5314 29.3825C26.2426 30.2469 26.0139 31.1375 25.8545 32.0525" stroke="#BA7894" stroke-width="3" stroke-miterlimit="10" stroke-linecap="round" stroke-linejoin="round"/>
<path d="M36.8176 61.0981C40.8226 63.4381 45.0639 64.7769 48.0001 64.7769C50.9383 64.7769 55.1776 63.4381 59.1826 61.1" stroke="#BA7894" stroke-width="3" stroke-miterlimit="10" stroke-linecap="round" stroke-linejoin="round"/>
<path d="M41.7339 16.7263C42.5926 16.6044 43.4701 16.5425 44.3608 16.5425H51.6395C60.9001 16.5425 68.5933 23.2381 70.1458 32.0525" stroke="#BA7894" stroke-width="3" stroke-miterlimit="10" stroke-linecap="round" stroke-linejoin="round"/>
<path d="M26.5259 29.3953C29.9133 21.2658 51.8243 10.8695 64.105 6.91158C59.5279 3.75577 53.9804 1.90627 48.0001 1.90627C43.2226 1.90627 38.7205 3.08564 34.7691 5.16914" stroke="#BA7894" stroke-width="3" stroke-miterlimit="10" stroke-linecap="round" stroke-linejoin="round"/>
<path d="M27.3863 47.6056C28.7382 46.9869 29.5557 45.5131 29.2801 43.9831L27.5663 34.415L18.5551 21.9763L15.7257 6.19065C15.6338 5.68065 15.1463 5.34128 14.6382 5.43315L2.92509 7.53315C2.40009 7.6269 2.05884 8.14065 2.17509 8.6619L9.87384 42.8506C10.727 46.6456 12.9263 50.0038 16.0613 52.3063L33.2007 64.8894C33.9732 65.4556 35.0663 65.3188 35.6551 64.5613C37.3538 62.3788 37.1757 59.2794 35.2426 57.305L27.8195 49.7244L27.3863 47.6056ZM27.3863 47.6056C27.137 47.72 26.8688 47.8063 26.5857 47.8569C24.7707 48.1813 23.0382 46.9738 22.712 45.1606L20.9963 35.5925" stroke="#BA7894" stroke-width="3" stroke-miterlimit="10" stroke-linecap="round" stroke-linejoin="round"/>
<path d="M75.0033 35.5927L73.2881 45.1605C72.9627 46.9745 71.2287 48.1813 69.4147 47.8562C67.6008 47.5308 66.3939 45.7968 66.7192 43.983L68.4344 34.415L77.4451 21.9763L80.2745 6.19065C80.3664 5.68065 80.8539 5.34128 81.362 5.43316L93.0751 7.53315C93.6001 7.6269 93.9414 8.14066 93.8251 8.66191L86.1264 42.8507C85.2732 46.6457 83.0739 50.0038 79.9389 52.3063L62.7995 64.8894C62.027 65.4556 60.9339 65.3188 60.3451 64.5613C58.6464 62.3788 58.8245 59.2794 60.7576 57.305L68.1807 49.7244L68.6139 47.6057" stroke="#BA7894" stroke-width="3" stroke-miterlimit="10" stroke-linecap="round" stroke-linejoin="round"/>
<path d="M34.6658 37.2286C36.483 36.1135 38.3003 36.1135 40.1177 37.2286" stroke="#BA7894" stroke-width="3" stroke-miterlimit="10" stroke-linecap="round" stroke-linejoin="round"/>
<path d="M55.8823 37.2286C57.6996 36.1135 59.5168 36.1135 61.3343 37.2286" stroke="#BA7894" stroke-width="3" stroke-miterlimit="10" stroke-linecap="round" stroke-linejoin="round"/>
<path d="M42.9661 51.7125C46.1781 53.1024 49.8218 53.1024 53.0339 51.7125" stroke="#BA7894" stroke-width="3" stroke-miterlimit="10" stroke-linecap="round" stroke-linejoin="round"/>
<path d="M20.2332 24.2919C21.5438 18.2207 24.7932 12.8713 29.3044 8.92628" stroke="#BA7894" stroke-width="3" stroke-miterlimit="10" stroke-linecap="round" stroke-linejoin="round"/>
</svg>
