<svg width="126" height="97" viewBox="0 0 126 97" fill="none" xmlns="http://www.w3.org/2000/svg">
<circle cx="48" cy="48.5" r="48" fill="#F7E5C1" fill-opacity="0.5"/>
<path d="M96.5855 44.733L96.751 44.411L96.6719 44.0576C96.3015 42.4027 95.646 38.9582 95.7039 35.6575C95.7328 34.0057 95.9402 32.4514 96.4118 31.1949C96.8797 29.9481 97.5772 29.0673 98.556 28.6038C99.857 27.9888 101.842 28.0258 104.147 28.6185C106.409 29.2001 108.788 30.2683 110.74 31.4637C111.85 32.1467 113.305 33.163 114.484 34.3936C115.679 35.6415 116.467 36.982 116.504 38.3202L116.504 38.321C116.536 39.3947 116.096 40.4744 115.26 41.5554C114.423 42.6381 113.235 43.658 111.901 44.5793C109.236 46.4215 106.158 47.7566 104.654 48.3549L104.324 48.4861L104.151 48.7959L94.3272 66.3639L94.0582 66.845L94.3213 67.3294C96.3697 71.0996 96.173 75.8461 95.9133 81.1538C95.8174 82.9914 95.72 84.9352 95.72 86.9C95.72 87.2277 95.4477 87.5 95.12 87.5H40.464C40.1363 87.5 39.864 87.2277 39.864 86.9C39.864 84.9351 39.7666 82.9913 39.6707 81.1535C39.3124 73.8229 39.0644 67.5516 44.6315 63.5521L45.048 63.2529V62.74V32.244C45.048 19.7074 55.2412 9.5 67.776 9.5C80.3115 9.5 90.5207 19.7083 90.536 32.2452V52.372L92.4255 52.829L96.5855 44.733ZM87.9067 61.8817L89.304 62.4867V60.964V32.244C89.304 20.3647 79.6573 10.7 67.776 10.7C55.9112 10.7 46.248 20.3642 46.248 32.244V60.964V62.4867L47.6454 61.8817C49.1362 61.2361 50.8482 60.6646 52.91 60.2306L52.9161 60.2293C56.7274 59.4023 59.5622 56.2735 60.0637 52.4046L60.1289 51.9017L59.7617 51.5519C56.273 48.2286 53.928 42.7751 53.928 36.548V36.4132C53.9486 36.1012 54.2002 35.8567 54.4535 35.8308L54.4573 35.8304C62.73 34.9543 69.8536 29.2194 73.6039 20.6614L73.604 20.6614L73.6072 20.6539C73.6743 20.4974 73.8262 20.3627 74.0099 20.312C74.1661 20.2689 74.349 20.2951 74.5139 20.4114C78.8267 23.6402 81.608 29.7861 81.608 36.548C81.608 42.777 79.2778 48.2298 75.7903 51.5519L75.4226 51.9022L75.4885 52.4057C75.9895 56.2352 78.819 59.4191 82.6404 60.2302L82.642 60.2306C84.7039 60.6646 86.4158 61.2361 87.9067 61.8817ZM78.5895 72.5811L78.8562 71.8364L78.1929 71.4055L74.7269 69.1534C74.5554 69.0372 74.4455 68.8361 74.4396 68.6461C74.4344 68.464 74.5242 68.2773 74.7007 68.1518C74.7016 68.1511 74.7026 68.1505 74.7035 68.1498L79.4647 64.8586L80.0356 64.4639L79.8655 63.791L79.1295 60.879L78.7961 59.5597L77.6366 60.2719C74.645 62.1094 71.2907 63.02 67.92 63.02C64.4754 63.02 61.0138 62.0488 57.9761 60.1198L56.812 59.3807L56.4711 60.7167L55.6871 63.7887L55.515 64.4629L56.0874 64.8586L60.8485 68.1498C60.8494 68.1504 60.8502 68.151 60.851 68.1516C61.0018 68.259 61.1069 68.4526 61.1118 68.6608C61.1009 68.8629 60.9942 69.0446 60.8352 69.1468L60.8312 69.1495L57.3592 71.4055L56.6959 71.8364L56.9626 72.5811C57.8503 75.0602 60.5877 81.1247 67.2002 85.7816L67.776 86.1871L68.3518 85.7816C74.9643 81.1247 77.7017 75.0602 78.5895 72.5811ZM55.9913 36.8263L55.1139 36.9765L55.1614 37.8655C55.3949 42.2268 56.8258 46.1789 59.0455 49.0638C61.2649 51.9485 64.3255 53.82 67.776 53.82C71.3984 53.82 74.5842 51.7639 76.8253 48.6319C79.0678 45.498 80.424 41.2211 80.424 36.548C80.424 31.1573 78.5808 26.0737 75.4063 22.7963L74.4398 21.7984L73.8003 23.0317C69.8932 30.5666 63.4037 35.5578 55.9913 36.8263ZM74.6557 54.1229L74.3 52.9085L73.2007 53.5353C71.5143 54.4969 69.6836 55.02 67.776 55.02C65.869 55.02 64.0533 54.4971 62.3808 53.5499L61.2786 52.9256L60.9272 54.1427C60.5175 55.562 59.8314 56.8451 58.9143 57.9368L58.1513 58.8451L59.1756 59.4435C64.524 62.5676 71.0952 62.601 76.4757 59.5628L77.5348 58.9647L76.7433 58.0412C75.7873 56.926 75.0834 55.5829 74.6557 54.1229ZM53.1799 61.4074L53.1799 61.4074L53.1687 61.4097C46.8587 62.7472 43.4988 65.1206 41.917 68.6622C41.147 70.3861 40.8356 72.3102 40.7379 74.3714C40.6409 76.4164 40.7526 78.6656 40.8713 81.0539L40.8731 81.0905C40.8731 81.091 40.8731 81.0915 40.8732 81.092C40.9372 82.4677 41.0006 83.88 41.0323 85.3377L41.0535 86.316H42.032H63.088H65.7021L63.7554 84.5713C57.1835 78.6814 55.4928 71.9434 55.4368 71.7084L55.4355 71.703C55.3765 71.4609 55.4762 71.2076 55.6904 71.0707L55.6955 71.0674L58.1915 69.4514L59.4435 68.6408L58.2181 67.7904L54.5127 65.219C54.5118 65.2184 54.5109 65.2178 54.51 65.2171C54.3035 65.0696 54.2078 64.8038 54.2657 64.5685C54.2658 64.5679 54.266 64.5672 54.2662 64.5665L54.7928 62.5078L55.1963 60.9306L53.6071 61.2838C53.4904 61.3097 53.378 61.3465 53.3154 61.3669C53.3089 61.3691 53.3029 61.371 53.2975 61.3728C53.2227 61.3971 53.1966 61.4041 53.1799 61.4074ZM93.6511 68.6622C92.0732 65.1295 88.7262 62.7592 82.447 61.4199C82.416 61.4094 82.3822 61.3964 82.3077 61.3694C82.2226 61.3387 82.0946 61.2943 81.9401 61.2634L80.3812 60.9516L80.7752 62.4918L81.3015 64.5492C81.3614 64.8021 81.2647 65.0538 81.0577 65.2014C81.0569 65.2019 81.0561 65.2025 81.0553 65.203L77.3499 67.7745L76.1245 68.6248L77.3765 69.4354L79.8725 71.0514L79.8776 71.0547C80.0918 71.1916 80.1916 71.4449 80.1325 71.687L80.1306 71.6947L80.1289 71.7024C80.0744 71.942 78.3858 78.6797 71.8136 84.5544L69.8608 86.3H72.48H93.52H94.4983L94.5198 85.322C94.5445 84.1954 94.5983 83.0912 94.6514 81.9988C94.6661 81.6956 94.6809 81.3933 94.6949 81.0916C94.6949 81.0912 94.6949 81.0909 94.6949 81.0905L94.6968 81.0538C94.8154 78.6655 94.9271 76.4164 94.8301 74.3714C94.7324 72.3102 94.4211 70.3861 93.6511 68.6622ZM92.3649 64.7591L93.3005 65.6947L93.9452 64.5393L102.553 49.1153L103.048 48.2295L102.155 47.7479L98.5068 45.7799L97.6093 45.2957L97.1428 46.2025L90.6148 58.8905L90.504 59.1058V59.348V62.724V63.2435L90.9291 63.5422C91.4658 63.9193 91.934 64.3282 92.3649 64.7591ZM103.529 47.1104L103.942 47.3306L104.376 47.1546C106.637 46.237 109.299 44.8754 111.405 43.4013C112.456 42.666 113.406 41.8772 114.099 41.0743C114.768 40.2994 115.329 39.361 115.304 38.3468L115.304 38.3422C115.277 37.4444 114.702 36.4556 113.887 35.5339C113.034 34.568 111.78 33.5196 110.108 32.4961C108.127 31.273 105.956 30.3376 104.031 29.8132C103.068 29.5509 102.144 29.3851 101.321 29.3454C100.517 29.3067 99.7142 29.383 99.0606 29.6919L99.0599 29.6923C98.1266 30.1344 97.6392 31.1133 97.3668 32.0494C97.0811 33.0315 96.953 34.2373 96.9282 35.5105C96.8784 38.0662 97.242 41.101 97.7906 43.6393L97.8879 44.0894L98.2932 44.3081L99.5092 44.9641L100.39 45.4395L100.865 44.5577L102.913 40.7497L102.915 40.7447C103.069 40.4548 103.421 40.3429 103.723 40.5033C104.013 40.6569 104.125 41.0074 103.966 41.3094C103.965 41.3101 103.965 41.3107 103.965 41.3113L101.919 45.1143L101.444 45.9981L102.329 46.4704L103.529 47.1104Z" fill="white" stroke="#BA7894" stroke-width="2"/>
</svg>
