<svg width="96" height="97" viewBox="0 0 96 97" fill="none" xmlns="http://www.w3.org/2000/svg">
<path d="M39.1287 62.6707H9.36865V35.7352C9.36865 28.4115 15.3068 22.4733 22.6305 22.4733H27.6433L31.356 35.4691L39.1287 62.6707Z" fill="white"/>
<path d="M39.1287 62.6707H9.36865V56.4251L31.3562 35.4691L39.1287 62.6707Z" fill="white"/>
<path d="M74.2972 52.6617L56.9198 38.3247H40.3602L22.9829 52.6617C18.8954 56.0343 21.28 62.6716 26.5792 62.6716H48.6402L48.64 62.6707H48.6408L48.6406 62.6716H70.7017C76.0002 62.6716 78.385 56.0341 74.2972 52.6617Z" fill="white"/>
<path d="M87.4698 76.2611H8.53005C4.77705 76.2611 1.73486 73.2187 1.73486 69.4659C1.73486 65.7129 4.77724 62.6707 8.53005 62.6707H87.4696C91.2226 62.6707 94.2648 65.7131 94.2648 69.4659C94.265 73.2189 91.2226 76.2611 87.4698 76.2611Z" fill="white"/>
<path d="M94.265 69.4657C94.265 71.3418 93.5039 73.0421 92.2756 74.2704C91.0451 75.5009 89.3471 76.262 87.4687 76.262H8.52893C4.77686 76.262 1.73486 73.2178 1.73486 69.4657C1.73486 68.2282 2.06561 67.0693 2.6463 66.0699C3.81911 68.1009 6.01436 69.4657 8.52893 69.4657H87.4687C89.3471 69.4657 91.0451 68.7046 92.2756 67.4763C92.6943 67.0576 93.0575 66.5857 93.3535 66.0699C93.9342 67.0693 94.265 68.2282 94.265 69.4657Z" fill="white"/>
<path d="M18.0632 76.261H10.2268V93.3815H18.0632V76.261Z" fill="white"/>
<path d="M85.7746 76.261H77.9382V93.3815H85.7746V76.261Z" fill="white"/>
<path d="M48.6407 57.0626C55.7639 57.0626 61.5384 51.288 61.5384 44.1648C61.5384 37.0416 55.7639 31.2671 48.6407 31.2671C41.5174 31.2671 35.7429 37.0416 35.7429 44.1648C35.7429 51.288 41.5174 57.0626 48.6407 57.0626Z" fill="white"/>
<path d="M61.5371 44.1648C61.5371 51.2896 55.7632 57.0635 48.6406 57.0635C41.5158 57.0635 35.7419 51.2896 35.7419 44.1648C35.7419 43.1124 35.8668 42.0898 36.1074 41.1114C37.4791 46.7604 42.5683 50.9542 48.6406 50.9542C54.7106 50.9542 59.7997 46.7602 61.1714 41.1114C61.4122 42.0898 61.5371 43.1122 61.5371 44.1648Z" fill="white"/>
<path d="M24.2891 29.4146C31.4123 29.4146 37.1869 23.64 37.1869 16.5168C37.1869 9.39357 31.4123 3.61905 24.2891 3.61905C17.1659 3.61905 11.3914 9.39357 11.3914 16.5168C11.3914 23.64 17.1659 29.4146 24.2891 29.4146Z" fill="white"/>
<path d="M96 69.4659C96 64.7622 92.1735 60.9357 87.4699 60.9357H76.9646C77.2367 60.4953 77.4701 60.0226 77.6516 59.5171C78.7185 56.5479 77.8354 53.3315 75.4013 51.3234L62.9321 41.0356C61.4944 34.4669 55.6341 29.5334 48.6401 29.5334C41.9173 29.5334 36.2426 34.0921 34.5354 40.2796L31.3988 29.3C35.8821 26.7967 38.9222 22.0061 38.9222 16.5168C38.9222 8.4485 32.3582 1.88412 24.2895 1.88412C16.2208 1.88412 9.65644 8.44794 9.65644 16.5162C9.65644 19.6237 10.6331 22.5059 12.2914 24.878C9.318 27.7027 7.63369 31.5845 7.63369 35.7352V60.9832C3.35006 61.4326 0 65.0654 0 69.4662C0 74.1566 3.8055 77.9742 8.49131 77.9954V83.0382C8.49131 83.9964 9.26813 84.7732 10.2262 84.7732C11.1844 84.7732 11.9612 83.9964 11.9612 83.0382V77.996H16.3277V91.6458H11.9612V91.2948C11.9612 90.3367 11.1844 89.5599 10.2262 89.5599C9.26813 89.5599 8.49131 90.3367 8.49131 91.2948V93.3809C8.49131 94.3391 9.26813 95.1159 10.2262 95.1159H18.0626C19.0208 95.1159 19.7976 94.3391 19.7976 93.3809V91.7519L47.694 78.1902L76.0427 91.9719C76.0954 91.9976 76.1488 92.0187 76.2026 92.0388V93.3809C76.2026 94.3391 76.9794 95.1159 77.9376 95.1159H85.7739C86.7321 95.1159 87.5089 94.3391 87.5089 93.3809V77.9951C92.1945 77.9739 96 74.1564 96 69.4659ZM74.3861 58.3437C73.9359 59.5968 72.7313 60.9357 70.6999 60.9357H50.3749V58.6921C53.0976 58.3687 55.5919 57.2958 57.6478 55.6846C57.7926 55.7236 57.9441 55.7467 58.1012 55.7467H64.4241C65.3822 55.7467 66.159 54.9699 66.159 54.0117C66.159 53.0536 65.3822 52.2768 64.4241 52.2768H60.8119C62.0887 50.3667 62.928 48.1411 63.1864 45.7437L73.1929 53.9997C74.7592 55.292 74.8363 57.0909 74.3861 58.3437ZM22.8932 58.3437C22.443 57.0909 22.5201 55.2918 24.0864 53.9997L34.0939 45.743C34.3521 48.1407 35.1913 50.3666 36.4684 52.2768H32.8562C31.8981 52.2768 31.1213 53.0536 31.1213 54.0117C31.1213 54.9699 31.8981 55.7467 32.8562 55.7467H38.8472C39.0906 55.7467 39.3219 55.6963 39.5319 55.6059C41.6064 57.2609 44.1381 58.3638 46.9052 58.6925V60.9361H26.5793C24.5483 60.9357 23.3436 59.597 22.8932 58.3437ZM48.6401 33.0031C54.7952 33.0031 59.8029 38.0107 59.8029 44.1659C59.8029 50.3212 54.7954 55.3288 48.6401 55.3288C42.4849 55.3288 37.4773 50.3212 37.4773 44.1659C37.4773 38.0107 42.4851 33.0031 48.6401 33.0031ZM24.2891 5.35344C30.4442 5.35344 35.4519 10.361 35.4519 16.5162C35.4519 22.6715 30.4442 27.6791 24.2891 27.6791C18.1341 27.6791 13.1263 22.6717 13.1263 16.5162C13.1263 10.3608 18.1341 5.35344 24.2891 5.35344ZM14.6001 27.4683C17.1831 29.7562 20.5757 31.1489 24.2891 31.1489C25.632 31.1489 26.9316 30.9635 28.1677 30.6232L31.7541 43.1748L26.4789 47.5269L23.8153 39.5081C23.5133 38.5987 22.5309 38.1063 21.6219 38.4086C20.7126 38.7106 20.2204 39.6926 20.5224 40.6019L23.6094 49.8948L21.8783 51.3232C19.4445 53.3315 18.561 56.5477 19.6279 59.5171C19.8094 60.0228 20.0428 60.4953 20.3149 60.9357H11.1036V35.7352C11.1036 32.5841 12.366 29.6332 14.6001 27.4683ZM19.7976 77.996H40.1572L19.7976 87.8937V77.996ZM79.6723 91.6462V77.9962H84.0388V91.646H79.6723V91.6462ZM87.4699 74.5261H72.6362C71.6781 74.5261 70.9013 75.3029 70.9013 76.2611C70.9013 77.2192 71.6781 77.996 72.6362 77.996H76.2028V88.1915L55.2309 77.996H63.2741C64.2323 77.996 65.0091 77.2192 65.0091 76.2611C65.0091 75.3029 64.2323 74.5261 63.2741 74.5261H8.53012C5.73994 74.5261 3.46988 72.2561 3.46988 69.4659C3.46988 66.6757 5.73994 64.4056 8.53012 64.4056H26.5793H70.6999H87.4699C90.2601 64.4056 92.5301 66.6757 92.5301 69.4659C92.5301 72.2561 90.2601 74.5261 87.4699 74.5261Z" fill="#BA7894"/>
</svg>
