<svg width="80" height="81" viewBox="0 0 80 81" fill="none" xmlns="http://www.w3.org/2000/svg">
<path d="M58.5855 36.733L58.751 36.411L58.6719 36.0576C58.3015 34.4027 57.646 30.9582 57.7039 27.6575C57.7328 26.0057 57.9402 24.4514 58.4118 23.1949C58.8797 21.9481 59.5772 21.0673 60.556 20.6038C61.857 19.9888 63.8421 20.0258 66.147 20.6185C68.4086 21.2001 70.7884 22.2683 72.7399 23.4637C73.8498 24.1467 75.3054 25.163 76.4837 26.3936C77.6786 27.6415 78.4667 28.982 78.5044 30.3202L78.5044 30.321C78.5356 31.3947 78.0964 32.4744 77.2603 33.5554C76.4229 34.6381 75.2346 35.658 73.9015 36.5793C71.2359 38.4215 68.1579 39.7566 66.6543 40.3549L66.3245 40.4861L66.1512 40.7959L56.3272 58.3639L56.0582 58.845L56.3213 59.3294C58.3697 63.0996 58.173 67.8461 57.9133 73.1538C57.8174 74.9914 57.72 76.9352 57.72 78.9C57.72 79.2277 57.4477 79.5 57.12 79.5H2.46402C2.1363 79.5 1.86402 79.2277 1.86402 78.9C1.86402 76.9351 1.76662 74.9913 1.67074 73.1535C1.31237 65.8229 1.06445 59.5516 6.63147 55.5521L7.04802 55.2529V54.74V24.244C7.04802 11.7074 17.2412 1.5 29.776 1.5C42.3115 1.5 52.5207 11.7083 52.536 24.2452V44.372L54.4255 44.829L58.5855 36.733ZM49.9067 53.8817L51.304 54.4867V52.964V24.244C51.304 12.3647 41.6573 2.7 29.776 2.7C17.9112 2.7 8.24802 12.3642 8.24802 24.244V52.964V54.4867L9.64536 53.8817C11.1362 53.2361 12.8482 52.6646 14.91 52.2306L14.9161 52.2293C18.7274 51.4023 21.5622 48.2735 22.0637 44.4046L22.1289 43.9017L21.7617 43.5519C18.273 40.2286 15.928 34.7751 15.928 28.548V28.4132C15.9486 28.1012 16.2002 27.8567 16.4535 27.8308L16.4573 27.8304C24.73 26.9543 31.8536 21.2194 35.6039 12.6614L35.604 12.6614L35.6072 12.6539C35.6743 12.4974 35.8262 12.3627 36.0099 12.312C36.1661 12.2689 36.349 12.2951 36.5139 12.4114C40.8267 15.6402 43.608 21.7861 43.608 28.548C43.608 34.777 41.2778 40.2298 37.7903 43.5519L37.4226 43.9022L37.4885 44.4057C37.9895 48.2352 40.819 51.4191 44.6404 52.2302L44.642 52.2306C46.7039 52.6646 48.4158 53.2361 49.9067 53.8817ZM40.5895 64.5811L40.8562 63.8364L40.1929 63.4055L36.7269 61.1534C36.5554 61.0372 36.4455 60.8361 36.4396 60.6461C36.4344 60.464 36.5242 60.2773 36.7007 60.1518C36.7016 60.1511 36.7026 60.1505 36.7035 60.1498L41.4647 56.8586L42.0356 56.4639L41.8655 55.791L41.1295 52.879L40.7961 51.5597L39.6366 52.2719C36.645 54.1094 33.2907 55.02 29.92 55.02C26.4754 55.02 23.0138 54.0488 19.9761 52.1198L18.812 51.3807L18.4711 52.7167L17.6871 55.7887L17.515 56.4629L18.0874 56.8586L22.8485 60.1498C22.8494 60.1504 22.8502 60.151 22.851 60.1516C23.0018 60.259 23.1069 60.4526 23.1118 60.6608C23.1009 60.8629 22.9942 61.0446 22.8352 61.1468L22.8312 61.1495L19.3592 63.4055L18.6959 63.8364L18.9626 64.5811C19.8503 67.0602 22.5877 73.1247 29.2002 77.7816L29.776 78.1871L30.3518 77.7816C36.9643 73.1247 39.7017 67.0602 40.5895 64.5811ZM17.9913 28.8263L17.1139 28.9765L17.1614 29.8655C17.3949 34.2268 18.8258 38.1789 21.0455 41.0638C23.2649 43.9485 26.3255 45.82 29.776 45.82C33.3984 45.82 36.5842 43.7639 38.8253 40.6319C41.0678 37.498 42.424 33.2211 42.424 28.548C42.424 23.1573 40.5808 18.0737 37.4063 14.7963L36.4398 13.7984L35.8003 15.0317C31.8932 22.5666 25.4037 27.5578 17.9913 28.8263ZM36.6557 46.1229L36.3 44.9085L35.2007 45.5353C33.5143 46.4969 31.6836 47.02 29.776 47.02C27.869 47.02 26.0533 46.4971 24.3808 45.5499L23.2786 44.9256L22.9272 46.1427C22.5175 47.562 21.8314 48.8451 20.9143 49.9368L20.1513 50.8451L21.1756 51.4435C26.524 54.5676 33.0952 54.601 38.4757 51.5628L39.5348 50.9647L38.7433 50.0412C37.7873 48.926 37.0834 47.5829 36.6557 46.1229ZM15.1799 53.4074L15.1799 53.4074L15.1687 53.4097C8.85869 54.7472 5.49878 57.1206 3.91695 60.6622C3.14696 62.3861 2.83562 64.3102 2.73789 66.3714C2.64092 68.4164 2.75264 70.6656 2.87127 73.0539L2.8731 73.0905C2.87312 73.091 2.87314 73.0915 2.87317 73.092C2.93715 74.4677 3.00056 75.88 3.03225 77.3377L3.05352 78.316H4.03202H25.088H27.7021L25.7554 76.5713C19.1835 70.6814 17.4928 63.9434 17.4368 63.7084L17.4355 63.703C17.3765 63.4609 17.4762 63.2076 17.6904 63.0707L17.6955 63.0674L20.1915 61.4514L21.4435 60.6408L20.2181 59.7904L16.5127 57.219C16.5118 57.2184 16.5109 57.2178 16.51 57.2171C16.3035 57.0696 16.2078 56.8038 16.2657 56.5685C16.2658 56.5679 16.266 56.5672 16.2662 56.5665L16.7928 54.5078L17.1963 52.9306L15.6071 53.2838C15.4904 53.3097 15.378 53.3465 15.3154 53.3669C15.3089 53.3691 15.3029 53.371 15.2975 53.3728C15.2227 53.3971 15.1966 53.4041 15.1799 53.4074ZM55.6511 60.6622C54.0732 57.1295 50.7262 54.7592 44.447 53.4199C44.416 53.4094 44.3822 53.3964 44.3077 53.3694C44.2226 53.3387 44.0946 53.2943 43.9401 53.2634L42.3812 52.9516L42.7752 54.4918L43.3015 56.5492C43.3614 56.8021 43.2647 57.0538 43.0577 57.2014C43.0569 57.2019 43.0561 57.2025 43.0553 57.203L39.3499 59.7745L38.1245 60.6248L39.3765 61.4354L41.8725 63.0514L41.8776 63.0547C42.0918 63.1916 42.1916 63.4449 42.1325 63.687L42.1306 63.6947L42.1289 63.7024C42.0744 63.942 40.3858 70.6797 33.8136 76.5544L31.8608 78.3H34.48H55.52H56.4983L56.5198 77.322C56.5445 76.1954 56.5983 75.0912 56.6514 73.9988C56.6661 73.6956 56.6809 73.3933 56.6949 73.0916C56.6949 73.0912 56.6949 73.0909 56.6949 73.0905L56.6968 73.0538C56.8154 70.6655 56.9271 68.4164 56.8301 66.3714C56.7324 64.3102 56.4211 62.3861 55.6511 60.6622ZM54.3649 56.7591L55.3005 57.6947L55.9452 56.5393L64.5532 41.1153L65.0476 40.2295L64.1548 39.7479L60.5068 37.7799L59.6093 37.2957L59.1428 38.2025L52.6148 50.8905L52.504 51.1058V51.348V54.724V55.2435L52.9291 55.5422C53.4658 55.9193 53.934 56.3282 54.3649 56.7591ZM65.5294 39.1104L65.9424 39.3306L66.376 39.1546C68.6374 38.237 71.2989 36.8754 73.4054 35.4013C74.4562 34.666 75.4056 33.8772 76.0989 33.0743C76.768 32.2994 77.3292 31.361 77.3037 30.3468L77.3036 30.3422C77.2768 29.4444 76.7018 28.4556 75.8874 27.5339C75.034 26.568 73.78 25.5196 72.1077 24.4961C70.127 23.273 67.9558 22.3376 66.0309 21.8132C65.0683 21.5509 64.1441 21.3851 63.3207 21.3454C62.5168 21.3067 61.7142 21.383 61.0606 21.6919L61.0599 21.6923C60.1266 22.1344 59.6392 23.1133 59.3668 24.0494C59.0811 25.0315 58.953 26.2373 58.9282 27.5105C58.8784 30.0662 59.242 33.101 59.7906 35.6393L59.8879 36.0894L60.2932 36.3081L61.5092 36.9641L62.3905 37.4395L62.8647 36.5577L64.9127 32.7497L64.9154 32.7447C65.0692 32.4548 65.4209 32.3429 65.7233 32.5033C66.0126 32.6569 66.1247 33.0074 65.9656 33.3094C65.9653 33.3101 65.965 33.3107 65.9647 33.3113L63.9193 37.1143L63.444 37.9981L64.3294 38.4704L65.5294 39.1104Z" fill="white" stroke="#BA7894" stroke-width="2"/>
</svg>
